<svg width="21.1013" height="21.1013" viewBox="0 0 21.1013 21.1013" fill="none" xmlns="http://www.w3.org/2000/svg">
<g id="Group 12">
<path id="Vector" d="M9.62297 0.041508C15.4374 -0.471713 20.5636 3.83396 21.0621 9.6497C21.5606 15.4654 17.2419 20.5806 11.425 21.0644C5.62877 21.5464 0.535851 17.2465 0.0391518 11.4516C-0.457547 5.65674 3.82936 0.552893 9.62297 0.041508Z" fill="currentColor"/>
<path id="Vector_2" d="M10.066 1.17155C11.7614 1.00771 13.7934 1.59592 15.2331 2.48615C17.3904 3.83999 18.9222 5.99453 19.4925 8.4767C19.9921 10.6539 19.6942 12.9379 18.6529 14.9141C18.2997 15.5805 17.9709 15.9819 17.59 16.5965C16.6375 14.714 14.7041 13.4044 12.6354 13.0893C12.1224 13.0111 11.6318 12.9886 11.1154 12.9689C9.87924 12.9435 8.44527 12.9361 7.27041 13.3162C5.70427 13.823 4.21623 14.9977 3.45992 16.4706C2.28364 15.0703 1.57845 13.1907 1.41369 11.3777C1.20703 8.8923 1.98547 6.42528 3.58103 4.50847C5.30481 2.4488 7.41456 1.40285 10.066 1.17155Z" fill="white"/>
<path id="Vector_3" d="M9.99661 3.91418C12.2064 3.62804 14.2291 5.1895 14.5117 7.39984C14.7943 9.61014 13.2295 11.6303 11.0188 11.9093C8.81303 12.1877 6.79851 10.6273 6.51659 8.42202C6.23467 6.21672 7.79182 4.19968 9.99661 3.91418Z" fill="currentColor"/>
<path id="Vector_4" d="M10.0624 5.14797C11.605 4.89987 13.055 5.95403 13.2949 7.49791C13.5348 9.04184 12.4729 10.4862 10.9278 10.7179C9.3942 10.948 7.96289 9.89577 7.72475 8.36341C7.48666 6.831 8.53123 5.39414 10.0624 5.14797Z" fill="white"/>
<path id="Vector_5" d="M9.92761 14.1602C12.7829 14.0029 15.4148 14.7346 16.7109 17.5113C14.8838 18.9972 13.4743 19.7495 11.0825 19.933C11.0329 19.9373 10.9833 19.9412 10.9336 19.9447C8.33031 20.126 6.22249 19.0832 4.31743 17.425C4.54565 16.9142 4.85676 16.4446 5.23809 16.0353C6.56944 14.5976 8.04426 14.2378 9.92761 14.1602Z" fill="white"/>
</g>
</svg>
